<?xml version="1.0" encoding="UTF-8" standalone="no"?>
<svg
   xmlns:dc="http://purl.org/dc/elements/1.1/"
   xmlns:cc="http://creativecommons.org/ns#"
   xmlns:rdf="http://www.w3.org/1999/02/22-rdf-syntax-ns#"
   xmlns:svg="http://www.w3.org/2000/svg"
   xmlns="http://www.w3.org/2000/svg"
   xmlns:sodipodi="http://sodipodi.sourceforge.net/DTD/sodipodi-0.dtd"
   xmlns:inkscape="http://www.inkscape.org/namespaces/inkscape"
   sodipodi:docname="front_surface_matching_path.svg"
   inkscape:version="1.0 (4035a4f, 2020-05-01)"
   id="svg8"
   version="1.1"
   viewBox="0 0 210 297"
   height="297mm"
   width="210mm">
  <defs
     id="defs2" />
  <sodipodi:namedview
     inkscape:window-maximized="0"
     inkscape:window-y="25"
     inkscape:window-x="0"
     inkscape:window-height="773"
     inkscape:window-width="1337"
     showgrid="true"
     inkscape:document-rotation="0"
     inkscape:current-layer="layer1"
     inkscape:document-units="mm"
     inkscape:cy="500.57052"
     inkscape:cx="797.4967"
     inkscape:zoom="0.31875634"
     inkscape:pageshadow="2"
     inkscape:pageopacity="0.0"
     borderopacity="1.0"
     bordercolor="#666666"
     pagecolor="#ffffff"
     id="base">
    <inkscape:grid
       id="grid833"
       type="xygrid" />
  </sodipodi:namedview>
  <metadata
     id="metadata5">
    <rdf:RDF>
      <cc:Work
         rdf:about="">
        <dc:format>image/svg+xml</dc:format>
        <dc:type
           rdf:resource="http://purl.org/dc/dcmitype/StillImage" />
        <dc:title />
      </cc:Work>
    </rdf:RDF>
  </metadata>
  <g
     id="layer1"
     inkscape:groupmode="layer"
     inkscape:label="Layer 1">
    <path
       sodipodi:nodetypes="ccc"
       id="path855"
       d="M 31.75,31.75 C 10.583333,31.75 10.583333,0 -10.583333,0 -31.75,0 -31.75,31.75 -52.916667,31.75"
       style="fill:none;stroke:#000000;stroke-width:0.264583px;stroke-linecap:butt;stroke-linejoin:miter;stroke-opacity:1" />
    <path
       style="fill:none;stroke:#000000;stroke-width:0.264583px;stroke-linecap:butt;stroke-linejoin:miter;stroke-opacity:1"
       d="M 31.75,31.75 C 10.583333,31.75 10.583333,63.5 -10.583333,63.5 -31.75,63.5 -31.75,31.75 -52.916667,31.75"
       id="path857"
       sodipodi:nodetypes="ccc" />
    <path
       style="fill:none;stroke:#000000;stroke-width:0.264583px;stroke-linecap:butt;stroke-linejoin:miter;stroke-opacity:1"
       d="M 31.75,95.25 C 10.583333,95.25 10.583333,63.5 -10.583333,63.5 -31.75,63.5 -31.75,95.25 -52.916667,95.25"
       id="path859"
       sodipodi:nodetypes="ccc" />
    <path
       sodipodi:nodetypes="ccc"
       id="path861"
       d="M 31.75,95.25 C 10.583333,95.25 10.583333,127 -10.583333,127 -31.75,127 -31.75,95.25 -52.916667,95.25"
       style="fill:none;stroke:#000000;stroke-width:0.264583px;stroke-linecap:butt;stroke-linejoin:miter;stroke-opacity:1" />
    <g
       id="g860"
       transform="translate(0,21.166666)">
      <path
         sodipodi:nodetypes="ccc"
         id="path863"
         d="m 31.75,21.166667 c -21.166667,0 -21.166667,-31.75 -42.333333,-31.75 -21.166667,0 -21.166667,31.75 -42.333334,31.75"
         style="fill:none;stroke:#0000ff;stroke-width:0.79375;stroke-linecap:butt;stroke-linejoin:miter;stroke-miterlimit:4;stroke-dasharray:none;stroke-opacity:1" />
      <path
         style="fill:none;stroke:#0000ff;stroke-width:0.79375;stroke-linecap:butt;stroke-linejoin:miter;stroke-miterlimit:4;stroke-dasharray:none;stroke-opacity:1"
         d="m 31.75,21.166667 c -21.166667,0 -21.166667,31.75 -42.333333,31.75 -21.166667,0 -21.166667,-31.75 -42.333334,-31.75"
         id="path865"
         sodipodi:nodetypes="ccc" />
    </g>
    <g
       id="g864"
       transform="translate(0,-21.166663)">
      <path
         style="fill:none;stroke:#ff0000;stroke-width:0.79375;stroke-linecap:butt;stroke-linejoin:miter;stroke-miterlimit:4;stroke-dasharray:none;stroke-opacity:1"
         d="m 31.75,105.83333 c -21.166667,0 -21.166667,-31.749997 -42.333333,-31.749997 -21.166667,0 -21.166667,31.749997 -42.333334,31.749997"
         id="path871"
         sodipodi:nodetypes="ccc" />
      <path
         sodipodi:nodetypes="ccc"
         id="path873"
         d="m 31.75,105.83333 c -21.166667,0 -21.166667,31.75 -42.333333,31.75 -21.166667,0 -21.166667,-31.75 -42.333334,-31.75"
         style="fill:none;stroke:#ff0000;stroke-width:0.79375;stroke-linecap:butt;stroke-linejoin:miter;stroke-miterlimit:4;stroke-dasharray:none;stroke-opacity:1" />
    </g>
    <path
       sodipodi:nodetypes="cccc"
       id="path875"
       d="M 232.83333,63.499999 C 232.83333,0 232.83333,0 275.16666,0 h 84.66667 c 42.33334,0 42.33334,0 42.33333,63.499999"
       style="fill:none;stroke:#000000;stroke-width:0.264583px;stroke-linecap:butt;stroke-linejoin:miter;stroke-opacity:1" />
    <path
       style="fill:none;stroke:#000000;stroke-width:0.264583px;stroke-linecap:butt;stroke-linejoin:miter;stroke-opacity:1"
       d="m 232.83334,63.5 c 0,63.5 0,63.5 42.33333,63.5 h 84.66667 c 42.33334,0 42.33334,0 42.33333,-63.5"
       id="path877"
       sodipodi:nodetypes="cccc" />
    <path
       style="fill:#000000;fill-opacity:1;stroke-width:0.79375"
       id="path881"
       sodipodi:type="arc"
       sodipodi:cx="269.875"
       sodipodi:cy="63.5"
       sodipodi:rx="5.2916665"
       sodipodi:ry="5.2916665"
       sodipodi:start="0.31047837"
       sodipodi:end="0.28595474"
       sodipodi:arc-type="slice"
       d="m 274.91366,65.116679 a 5.2916665,5.2916665 0 0 1 -6.62442,3.431797 5.2916665,5.2916665 0 0 1 -3.47234,-6.603252 5.2916665,5.2916665 0 0 1 6.58184,-3.512764 5.2916665,5.2916665 0 0 1 3.55305,6.560179 L 269.875,63.5 Z" />
    <path
       d="m 370.16366,65.116679 a 5.2916665,5.2916665 0 0 1 -6.62442,3.431797 5.2916665,5.2916665 0 0 1 -3.47234,-6.603252 5.2916665,5.2916665 0 0 1 6.58184,-3.512764 5.2916665,5.2916665 0 0 1 3.55305,6.560179 L 365.125,63.5 Z"
       sodipodi:arc-type="slice"
       sodipodi:end="0.28595474"
       sodipodi:start="0.31047837"
       sodipodi:ry="5.2916665"
       sodipodi:rx="5.2916665"
       sodipodi:cy="63.5"
       sodipodi:cx="365.125"
       sodipodi:type="arc"
       id="path883"
       style="fill:#000000;fill-opacity:1;stroke-width:0.79375" />
    <path
       d="m 322.53866,65.116679 a 5.2916665,5.2916665 0 0 1 -6.62442,3.431797 5.2916665,5.2916665 0 0 1 -3.47234,-6.603252 5.2916665,5.2916665 0 0 1 6.58184,-3.512764 5.2916665,5.2916665 0 0 1 3.55305,6.560179 L 317.5,63.5 Z"
       sodipodi:arc-type="slice"
       sodipodi:end="0.28595474"
       sodipodi:start="0.31047837"
       sodipodi:ry="5.2916665"
       sodipodi:rx="5.2916665"
       sodipodi:cy="63.5"
       sodipodi:cx="317.5"
       sodipodi:type="arc"
       id="path885"
       style="fill:#000000;fill-opacity:1;stroke-width:0.79375" />
    <path
       id="path887"
       d="M 359.83333,63.499999 H 322.79166"
       style="fill:none;stroke:#ff0000;stroke-width:0.79375;stroke-linecap:butt;stroke-linejoin:miter;stroke-opacity:1;stroke-miterlimit:4;stroke-dasharray:none" />
    <path
       id="path889"
       d="M 312.20833,63.499999 H 275.16666"
       style="fill:none;stroke:#0000ff;stroke-width:0.79375;stroke-linecap:butt;stroke-linejoin:miter;stroke-opacity:1;stroke-miterlimit:4;stroke-dasharray:none" />
    <path
       id="path3338"
       d="M 63.499999,0 H 201.08333 V 127 H 63.499999 Z"
       style="fill:none;stroke:#000000;stroke-width:0.264583px;stroke-linecap:butt;stroke-linejoin:miter;stroke-opacity:1" />
    <path
       id="path3340"
       d="M 63.499999,63.499999 H 201.08333"
       style="fill:none;stroke:#0000ff;stroke-width:0.79375;stroke-linecap:butt;stroke-linejoin:miter;stroke-opacity:1;stroke-miterlimit:4;stroke-dasharray:none" />
    <path
       id="path3342"
       d="M 127,0 V 127"
       style="fill:none;stroke:#ff0000;stroke-width:0.79375;stroke-linecap:butt;stroke-linejoin:miter;stroke-opacity:1;stroke-miterlimit:4;stroke-dasharray:none" />
  </g>
</svg>
