<?xml version="1.0" encoding="UTF-8" standalone="no"?>
<svg
   xmlns:dc="http://purl.org/dc/elements/1.1/"
   xmlns:cc="http://creativecommons.org/ns#"
   xmlns:rdf="http://www.w3.org/1999/02/22-rdf-syntax-ns#"
   xmlns:svg="http://www.w3.org/2000/svg"
   xmlns="http://www.w3.org/2000/svg"
   xmlns:sodipodi="http://sodipodi.sourceforge.net/DTD/sodipodi-0.dtd"
   xmlns:inkscape="http://www.inkscape.org/namespaces/inkscape"
   sodipodi:docname="front_surface_matching_path_mod_1.svg"
   inkscape:version="1.0 (4035a4f, 2020-05-01)"
   id="svg8"
   version="1.1"
   viewBox="0 0 210 297"
   height="297mm"
   width="210mm">
  <defs
     id="defs2" />
  <sodipodi:namedview
     inkscape:window-maximized="0"
     inkscape:window-y="25"
     inkscape:window-x="0"
     inkscape:window-height="773"
     inkscape:window-width="1337"
     showgrid="true"
     inkscape:document-rotation="0"
     inkscape:current-layer="layer1"
     inkscape:document-units="mm"
     inkscape:cy="507.61271"
     inkscape:cx="115.38617"
     inkscape:zoom="0.31875634"
     inkscape:pageshadow="2"
     inkscape:pageopacity="0.0"
     borderopacity="1.0"
     bordercolor="#666666"
     pagecolor="#ffffff"
     id="base">
    <inkscape:grid
       id="grid833"
       type="xygrid" />
  </sodipodi:namedview>
  <metadata
     id="metadata5">
    <rdf:RDF>
      <cc:Work
         rdf:about="">
        <dc:format>image/svg+xml</dc:format>
        <dc:type
           rdf:resource="http://purl.org/dc/dcmitype/StillImage" />
        <dc:title />
      </cc:Work>
    </rdf:RDF>
  </metadata>
  <g
     id="layer1"
     inkscape:groupmode="layer"
     inkscape:label="Layer 1">
    <path
       sodipodi:nodetypes="cccccccccccc"
       id="path851"
       d="M 137.58333,42.333333 V 31.75 l -52.916664,0 10e-7,52.916667 H 95.25 l -10e-7,-42.333334 116.416671,0 V 127 L 52.916667,127 52.916664,0 169.33333,6.6666665e-7 V 42.333333"
       style="fill:none;stroke:#000000;stroke-width:0.264583px;stroke-linecap:butt;stroke-linejoin:miter;stroke-opacity:1" />
    <path
       sodipodi:nodetypes="cccccccc"
       id="path853"
       d="M 137.58333,74.083333 V 84.666667 H 127 V 74.083333 l 52.91667,0 V 84.666667 H 169.33333 V 74.083333"
       style="fill:none;stroke:#000000;stroke-width:0.264583px;stroke-linecap:butt;stroke-linejoin:miter;stroke-opacity:1" />
    <path
       sodipodi:nodetypes="cccc"
       id="path875"
       d="M 232.83333,63.499999 C 232.83333,0 232.83333,0 275.16666,0 h 84.66667 c 42.33334,0 42.33334,0 42.33333,63.499999"
       style="fill:none;stroke:#000000;stroke-width:0.264583px;stroke-linecap:butt;stroke-linejoin:miter;stroke-opacity:1" />
    <path
       style="fill:none;stroke:#000000;stroke-width:0.264583px;stroke-linecap:butt;stroke-linejoin:miter;stroke-opacity:1"
       d="m 232.83334,63.5 c 0,63.5 0,63.5 42.33333,63.5 h 84.66667 c 42.33334,0 42.33334,0 42.33333,-63.5"
       id="path877"
       sodipodi:nodetypes="cccc" />
    <g
       transform="translate(3.3333335e-7,-63.499993)"
       id="g1484">
      <path
         style="fill:none;stroke:#009600;stroke-width:0.79375;stroke-linecap:butt;stroke-linejoin:miter;stroke-miterlimit:4;stroke-dasharray:none;stroke-opacity:1"
         d="m 31.75,95.249993 c -21.166667,0 -21.166667,-31.749997 -42.333333,-31.749997 -21.166667,0 -21.166667,31.749997 -42.333334,31.749997"
         id="path871"
         sodipodi:nodetypes="ccc" />
      <path
         sodipodi:nodetypes="ccc"
         id="path873"
         d="m 31.75,95.249993 c -21.166667,0 -21.166667,31.749997 -42.333333,31.749997 -21.166667,0 -21.166667,-31.749997 -42.333334,-31.749997"
         style="fill:none;stroke:#009600;stroke-width:0.79375;stroke-linecap:butt;stroke-linejoin:miter;stroke-miterlimit:4;stroke-dasharray:none;stroke-opacity:1" />
    </g>
    <path
       style="fill:#000000;fill-opacity:1;stroke-width:0.79375"
       id="path881"
       sodipodi:type="arc"
       sodipodi:cx="269.875"
       sodipodi:cy="63.5"
       sodipodi:rx="5.2916665"
       sodipodi:ry="5.2916665"
       sodipodi:start="0.31047837"
       sodipodi:end="0.28595474"
       sodipodi:arc-type="slice"
       d="m 274.91366,65.116679 a 5.2916665,5.2916665 0 0 1 -6.62442,3.431797 5.2916665,5.2916665 0 0 1 -3.47234,-6.603252 5.2916665,5.2916665 0 0 1 6.58184,-3.512764 5.2916665,5.2916665 0 0 1 3.55305,6.560179 L 269.875,63.5 Z" />
    <path
       d="m 370.16366,65.116679 a 5.2916665,5.2916665 0 0 1 -6.62442,3.431797 5.2916665,5.2916665 0 0 1 -3.47234,-6.603252 5.2916665,5.2916665 0 0 1 6.58184,-3.512764 5.2916665,5.2916665 0 0 1 3.55305,6.560179 L 365.125,63.5 Z"
       sodipodi:arc-type="slice"
       sodipodi:end="0.28595474"
       sodipodi:start="0.31047837"
       sodipodi:ry="5.2916665"
       sodipodi:rx="5.2916665"
       sodipodi:cy="63.5"
       sodipodi:cx="365.125"
       sodipodi:type="arc"
       id="path883"
       style="fill:#000000;fill-opacity:1;stroke-width:0.79375" />
    <path
       d="m 322.53866,65.116679 a 5.2916665,5.2916665 0 0 1 -6.62442,3.431797 5.2916665,5.2916665 0 0 1 -3.47234,-6.603252 5.2916665,5.2916665 0 0 1 6.58184,-3.512764 5.2916665,5.2916665 0 0 1 3.55305,6.560179 L 317.5,63.5 Z"
       sodipodi:arc-type="slice"
       sodipodi:end="0.28595474"
       sodipodi:start="0.31047837"
       sodipodi:ry="5.2916665"
       sodipodi:rx="5.2916665"
       sodipodi:cy="63.5"
       sodipodi:cx="317.5"
       sodipodi:type="arc"
       id="path885"
       style="fill:#000000;fill-opacity:1;stroke-width:0.79375" />
    <path
       id="path887"
       d="M 359.83333,63.499999 H 322.79166"
       style="fill:none;stroke:#009600;stroke-width:0.79375;stroke-linecap:butt;stroke-linejoin:miter;stroke-opacity:1;stroke-miterlimit:4;stroke-dasharray:none" />
    <path
       sodipodi:nodetypes="cccccc"
       id="path891"
       d="M 148.16667,42.333333 V 21.166667 H 63.5 v 95.250003 h 95.25 l -0.32306,-15.875 h 37.36472 V 58.208333 H 111.125 v 42.333337 h 37.04167 l 0,-26.458337"
       style="fill:none;stroke:#ff00ff;stroke-width:0.79375;stroke-linecap:butt;stroke-linejoin:miter;stroke-miterlimit:4;stroke-dasharray:none;stroke-opacity:1" />
    <path
       id="path893"
       d="M 153.45833,42.333333 V 15.875 H 68.791666 v 95.25 H 153.45833 V 74.083332"
       style="fill:none;stroke:#009600;stroke-width:0.79375;stroke-linecap:butt;stroke-linejoin:miter;stroke-opacity:1;stroke-miterlimit:4;stroke-dasharray:none" />
    <path
       style="fill:none;stroke:#000000;stroke-width:0.264583px;stroke-linecap:butt;stroke-linejoin:miter;stroke-opacity:1"
       d="M 137.58333,42.333333 V 31.75 l -52.916664,0 10e-7,52.916667 H 95.25 l -10e-7,-42.333334 116.416671,0 V 127 L 52.916667,127 52.916664,0 169.33333,6.6666665e-7 V 42.333333"
       id="path953"
       sodipodi:nodetypes="cccccccccccc" />
    <path
       style="fill:none;stroke:#000000;stroke-width:0.264583px;stroke-linecap:butt;stroke-linejoin:miter;stroke-opacity:1"
       d="M 137.58333,74.083333 V 84.666667 H 127 V 74.083333 l 52.91667,0 V 84.666667 H 169.33333 V 74.083333"
       id="path955"
       sodipodi:nodetypes="cccccccc" />
    <path
       style="fill:none;stroke:#000000;stroke-width:0.264583px;stroke-linecap:butt;stroke-linejoin:miter;stroke-opacity:1"
       d="M 232.83333,63.499999 C 232.83333,0 232.83333,0 275.16666,0 h 84.66667 c 42.33334,0 42.33334,0 42.33333,63.499999"
       id="path965"
       sodipodi:nodetypes="cccc" />
    <path
       sodipodi:nodetypes="cccc"
       id="path967"
       d="m 232.83334,63.5 c 0,63.5 0,63.5 42.33333,63.5 h 84.66667 c 42.33334,0 42.33334,0 42.33333,-63.5"
       style="fill:none;stroke:#000000;stroke-width:0.264583px;stroke-linecap:butt;stroke-linejoin:miter;stroke-opacity:1" />
    <path
       d="m 274.91366,65.116679 a 5.2916665,5.2916665 0 0 1 -6.62442,3.431797 5.2916665,5.2916665 0 0 1 -3.47234,-6.603252 5.2916665,5.2916665 0 0 1 6.58184,-3.512764 5.2916665,5.2916665 0 0 1 3.55305,6.560179 L 269.875,63.5 Z"
       sodipodi:arc-type="slice"
       sodipodi:end="0.28595474"
       sodipodi:start="0.31047837"
       sodipodi:ry="5.2916665"
       sodipodi:rx="5.2916665"
       sodipodi:cy="63.5"
       sodipodi:cx="269.875"
       sodipodi:type="arc"
       id="path969"
       style="fill:#000000;fill-opacity:1;stroke-width:0.79375" />
    <path
       style="fill:#000000;fill-opacity:1;stroke-width:0.79375"
       id="path971"
       sodipodi:type="arc"
       sodipodi:cx="365.125"
       sodipodi:cy="63.5"
       sodipodi:rx="5.2916665"
       sodipodi:ry="5.2916665"
       sodipodi:start="0.31047837"
       sodipodi:end="0.28595474"
       sodipodi:arc-type="slice"
       d="m 370.16366,65.116679 a 5.2916665,5.2916665 0 0 1 -6.62442,3.431797 5.2916665,5.2916665 0 0 1 -3.47234,-6.603252 5.2916665,5.2916665 0 0 1 6.58184,-3.512764 5.2916665,5.2916665 0 0 1 3.55305,6.560179 L 365.125,63.5 Z" />
    <path
       style="fill:#000000;fill-opacity:1;stroke-width:0.79375"
       id="path973"
       sodipodi:type="arc"
       sodipodi:cx="317.5"
       sodipodi:cy="63.5"
       sodipodi:rx="5.2916665"
       sodipodi:ry="5.2916665"
       sodipodi:start="0.31047837"
       sodipodi:end="0.28595474"
       sodipodi:arc-type="slice"
       d="m 322.53866,65.116679 a 5.2916665,5.2916665 0 0 1 -6.62442,3.431797 5.2916665,5.2916665 0 0 1 -3.47234,-6.603252 5.2916665,5.2916665 0 0 1 6.58184,-3.512764 5.2916665,5.2916665 0 0 1 3.55305,6.560179 L 317.5,63.5 Z" />
    <path
       style="fill:none;stroke:#009600;stroke-width:0.79375;stroke-linecap:butt;stroke-linejoin:miter;stroke-opacity:1;stroke-miterlimit:4;stroke-dasharray:none"
       d="M 359.83333,63.499999 H 322.79166"
       id="path975" />
    <path
       style="fill:none;stroke:#ff00ff;stroke-width:0.79375;stroke-linecap:butt;stroke-linejoin:miter;stroke-miterlimit:4;stroke-dasharray:none;stroke-opacity:1"
       d="M 148.16667,42.333333 V 21.166667 H 63.5 v 95.250003 h 95.25 l -0.32306,-15.875 h 37.36472 V 58.208333 H 111.125 v 42.333337 h 37.04167 l 0,-26.458337"
       id="path979"
       sodipodi:nodetypes="cccccc" />
    <path
       style="fill:none;stroke:#009600;stroke-width:0.79375;stroke-linecap:butt;stroke-linejoin:miter;stroke-opacity:1;stroke-miterlimit:4;stroke-dasharray:none"
       d="M 153.45833,42.333333 V 15.875 H 68.791666 v 95.25 H 153.45833 V 74.083332"
       id="path981" />
    <path
       style="fill:none;stroke:#ff00ff;stroke-width:0.79375;stroke-linecap:butt;stroke-linejoin:miter;stroke-opacity:1;stroke-miterlimit:4;stroke-dasharray:none"
       d="m 269.875,58.208333 c 0,-21.166666 26.45833,-31.75 47.625,-31.75 21.16667,0 47.625,10.583334 47.625,31.75"
       id="path1493"
       sodipodi:nodetypes="ccc" />
    <g
       id="g1490">
      <path
         sodipodi:nodetypes="cccccccc"
         id="path1486"
         d="m -21.166667,74.083333 c -21.166667,0 -10.583333,21.16666 -31.75,21.16666 m 84.666667,0 c -21.166667,0 -10.583334,-21.16666 -31.75,-21.16666 21.166667,0 10.583333,-31.75 31.75,-31.75 -21.166667,0 -21.166667,-31.75 -42.333333,-31.75 -21.166667,0 -21.166667,31.75 -42.333334,31.75 21.166667,0 10.583334,31.75 31.75,31.75"
         style="fill:none;stroke:#ff00ff;stroke-width:0.79375;stroke-linecap:butt;stroke-linejoin:miter;stroke-miterlimit:4;stroke-dasharray:none;stroke-opacity:1" />
      <path
         style="fill:none;stroke:#ff00ff;stroke-width:0.79375;stroke-linecap:butt;stroke-linejoin:miter;stroke-miterlimit:4;stroke-dasharray:none;stroke-opacity:1"
         d="m 31.75,95.249993 c -21.166667,0 -21.166667,31.749997 -42.333333,31.749997 -21.166667,0 -21.166667,-31.749997 -42.333334,-31.749997"
         id="path1488"
         sodipodi:nodetypes="ccc" />
    </g>
  </g>
</svg>
