<?xml version="1.0" encoding="UTF-8" standalone="no"?>
<svg
   xmlns:dc="http://purl.org/dc/elements/1.1/"
   xmlns:cc="http://creativecommons.org/ns#"
   xmlns:rdf="http://www.w3.org/1999/02/22-rdf-syntax-ns#"
   xmlns:svg="http://www.w3.org/2000/svg"
   xmlns="http://www.w3.org/2000/svg"
   xmlns:sodipodi="http://sodipodi.sourceforge.net/DTD/sodipodi-0.dtd"
   xmlns:inkscape="http://www.inkscape.org/namespaces/inkscape"
   width="210mm"
   height="297mm"
   viewBox="0 0 210 297"
   version="1.1"
   id="svg8"
   inkscape:version="1.0 (4035a4f, 2020-05-01)"
   sodipodi:docname="front_surface_matching_path.svg">
  <defs
     id="defs2" />
  <sodipodi:namedview
     id="base"
     pagecolor="#ffffff"
     bordercolor="#666666"
     borderopacity="1.0"
     inkscape:pageopacity="0.0"
     inkscape:pageshadow="2"
     inkscape:zoom="0.45078954"
     inkscape:cx="61.207014"
     inkscape:cy="311.50125"
     inkscape:document-units="mm"
     inkscape:current-layer="layer1"
     inkscape:document-rotation="0"
     showgrid="true"
     inkscape:window-width="1337"
     inkscape:window-height="773"
     inkscape:window-x="0"
     inkscape:window-y="25"
     inkscape:window-maximized="0">
    <inkscape:grid
       type="xygrid"
       id="grid833" />
  </sodipodi:namedview>
  <metadata
     id="metadata5">
    <rdf:RDF>
      <cc:Work
         rdf:about="">
        <dc:format>image/svg+xml</dc:format>
        <dc:type
           rdf:resource="http://purl.org/dc/dcmitype/StillImage" />
        <dc:title></dc:title>
      </cc:Work>
    </rdf:RDF>
  </metadata>
  <g
     inkscape:label="Layer 1"
     inkscape:groupmode="layer"
     id="layer1">
    <path
       sodipodi:nodetypes="ccc"
       id="path857"
       d="M 31.75,31.75 C 10.583333,31.75 10.583333,63.5 -10.583333,63.5 -31.75,63.5 -31.75,31.75 -52.916667,31.75"
       style="fill:none;stroke:#000000;stroke-width:0.264583px;stroke-linecap:butt;stroke-linejoin:miter;stroke-opacity:1" />
    <path
       sodipodi:nodetypes="ccc"
       id="path859"
       d="M 31.75,95.25 C 10.583333,95.25 10.583333,63.5 -10.583333,63.5 -31.75,63.5 -31.75,95.25 -52.916667,95.25"
       style="fill:none;stroke:#000000;stroke-width:0.264583px;stroke-linecap:butt;stroke-linejoin:miter;stroke-opacity:1" />
    <path
       style="fill:none;stroke:#0000ff;stroke-width:0.79375;stroke-linecap:butt;stroke-linejoin:miter;stroke-miterlimit:4;stroke-dasharray:none;stroke-opacity:1"
       d="m 31.75,42.333333 c -21.166667,0 -21.166667,31.75 -42.333333,31.75 -21.166667,0 -21.166667,-31.75 -42.333334,-31.75"
       id="path865"
       sodipodi:nodetypes="ccc" />
    <g
       transform="translate(0,-21.166663)"
       id="g864">
      <path
         sodipodi:nodetypes="ccc"
         id="path871"
         d="m 31.75,105.83333 c -21.166667,0 -21.166667,-31.749997 -42.333333,-31.749997 -21.166667,0 -21.166667,31.749997 -42.333334,31.749997"
         style="fill:none;stroke:#ff0000;stroke-width:0.79375;stroke-linecap:butt;stroke-linejoin:miter;stroke-miterlimit:4;stroke-dasharray:none;stroke-opacity:1" />
    </g>
    <path
       style="fill:none;stroke:#000000;stroke-width:0.264583px;stroke-linecap:butt;stroke-linejoin:miter;stroke-opacity:1"
       d="M 232.83333,63.499999 C 232.83333,0 232.83333,0 275.16666,0 h 84.66667 c 42.33334,0 42.33334,0 42.33333,63.499999"
       id="path875"
       sodipodi:nodetypes="cccc" />
    <path
       sodipodi:nodetypes="cccc"
       id="path877"
       d="m 232.83334,63.5 c 0,63.5 0,63.5 42.33333,63.5 h 84.66667 c 42.33334,0 42.33334,0 42.33333,-63.5"
       style="fill:none;stroke:#000000;stroke-width:0.264583px;stroke-linecap:butt;stroke-linejoin:miter;stroke-opacity:1" />
    <path
       d="m 274.91366,65.116679 a 5.2916665,5.2916665 0 0 1 -6.62442,3.431797 5.2916665,5.2916665 0 0 1 -3.47234,-6.603252 5.2916665,5.2916665 0 0 1 6.58184,-3.512764 5.2916665,5.2916665 0 0 1 3.55305,6.560179 L 269.875,63.5 Z"
       sodipodi:arc-type="slice"
       sodipodi:end="0.28595474"
       sodipodi:start="0.31047837"
       sodipodi:ry="5.2916665"
       sodipodi:rx="5.2916665"
       sodipodi:cy="63.5"
       sodipodi:cx="269.875"
       sodipodi:type="arc"
       id="path881"
       style="fill:#000000;fill-opacity:1;stroke-width:0.79375" />
    <path
       style="fill:#000000;fill-opacity:1;stroke-width:0.79375"
       id="path883"
       sodipodi:type="arc"
       sodipodi:cx="365.125"
       sodipodi:cy="63.5"
       sodipodi:rx="5.2916665"
       sodipodi:ry="5.2916665"
       sodipodi:start="0.31047837"
       sodipodi:end="0.28595474"
       sodipodi:arc-type="slice"
       d="m 370.16366,65.116679 a 5.2916665,5.2916665 0 0 1 -6.62442,3.431797 5.2916665,5.2916665 0 0 1 -3.47234,-6.603252 5.2916665,5.2916665 0 0 1 6.58184,-3.512764 5.2916665,5.2916665 0 0 1 3.55305,6.560179 L 365.125,63.5 Z" />
    <path
       style="fill:#000000;fill-opacity:1;stroke-width:0.79375"
       id="path885"
       sodipodi:type="arc"
       sodipodi:cx="317.5"
       sodipodi:cy="63.5"
       sodipodi:rx="5.2916665"
       sodipodi:ry="5.2916665"
       sodipodi:start="0.31047837"
       sodipodi:end="0.28595474"
       sodipodi:arc-type="slice"
       d="m 322.53866,65.116679 a 5.2916665,5.2916665 0 0 1 -6.62442,3.431797 5.2916665,5.2916665 0 0 1 -3.47234,-6.603252 5.2916665,5.2916665 0 0 1 6.58184,-3.512764 5.2916665,5.2916665 0 0 1 3.55305,6.560179 L 317.5,63.5 Z" />
    <path
       style="fill:none;stroke:#ff0000;stroke-width:0.79375;stroke-linecap:butt;stroke-linejoin:miter;stroke-opacity:1;stroke-miterlimit:4;stroke-dasharray:none"
       d="M 359.83333,63.499999 H 322.79166"
       id="path887" />
    <path
       style="fill:none;stroke:#0000ff;stroke-width:0.79375;stroke-linecap:butt;stroke-linejoin:miter;stroke-opacity:1;stroke-miterlimit:4;stroke-dasharray:none"
       d="M 312.20833,63.499999 H 275.16666"
       id="path889" />
    <path
       style="fill:none;stroke:#000000;stroke-width:0.264583px;stroke-linecap:butt;stroke-linejoin:miter;stroke-opacity:1"
       d="M 63.499999,0 H 201.08333 V 127 H 63.499999 Z"
       id="path3338" />
    <path
       style="fill:none;stroke:#0000ff;stroke-width:0.79375;stroke-linecap:butt;stroke-linejoin:miter;stroke-opacity:1;stroke-miterlimit:4;stroke-dasharray:none"
       d="M 63.499999,63.499999 H 201.08333"
       id="path3340" />
    <path
       style="fill:none;stroke:#ff0000;stroke-width:0.79375;stroke-linecap:butt;stroke-linejoin:miter;stroke-opacity:1;stroke-miterlimit:4;stroke-dasharray:none"
       d="M 127,0 V 127"
       id="path3342" />
    <path
       id="path2181"
       d="M -52.916666,26.458333 V 47.624999"
       style="fill:none;stroke:#000000;stroke-width:1.32291667;stroke-linecap:butt;stroke-linejoin:miter;stroke-opacity:1;stroke-miterlimit:4;stroke-dasharray:2.64583333,1.32291667;stroke-dashoffset:0" />
    <path
       id="path2183"
       d="M 31.75,26.458333 V 47.624999"
       style="fill:none;stroke:#000000;stroke-width:1.32291667;stroke-linecap:butt;stroke-linejoin:miter;stroke-opacity:1;stroke-miterlimit:4;stroke-dasharray:2.64583333,1.32291667;stroke-dashoffset:0" />
    <path
       id="path2185"
       d="M -52.916666,79.374999 V 100.54167"
       style="fill:none;stroke:#000000;stroke-width:1.32291667;stroke-linecap:butt;stroke-linejoin:miter;stroke-opacity:1;stroke-miterlimit:4;stroke-dasharray:2.64583333,1.32291667;stroke-dashoffset:0" />
    <path
       id="path2187"
       d="M 31.75,79.374999 V 100.54167"
       style="fill:none;stroke:#000000;stroke-width:1.32291667;stroke-linecap:butt;stroke-linejoin:miter;stroke-opacity:1;stroke-miterlimit:4;stroke-dasharray:2.64583333,1.32291667;stroke-dashoffset:0" />
    <path
       sodipodi:nodetypes="ccc"
       id="path2434"
       d="m -84.66666,31.75 c -21.16667,0 -21.16667,31.75 -42.33333,31.75 -21.16667,0 -21.16667,-31.75 -42.33334,-31.75"
       style="fill:none;stroke:#0000ff;stroke-width:0.79375;stroke-linecap:butt;stroke-linejoin:miter;stroke-miterlimit:4;stroke-dasharray:none;stroke-opacity:1" />
    <g
       id="g2438"
       transform="translate(-116.41667,-10.58333)">
      <path
         style="fill:none;stroke:#ff0000;stroke-width:0.79375;stroke-linecap:butt;stroke-linejoin:miter;stroke-miterlimit:4;stroke-dasharray:none;stroke-opacity:1"
         d="m 31.75,105.83333 c -21.166667,0 -21.166667,-31.749997 -42.333333,-31.749997 -21.166667,0 -21.166667,31.749997 -42.333334,31.749997"
         id="path2436"
         sodipodi:nodetypes="ccc" />
    </g>
    <g
       transform="matrix(1,0,0,-1,-116.41667,201.08333)"
       id="g2442">
      <path
         sodipodi:nodetypes="ccc"
         id="path2440"
         d="m 31.75,105.83333 c -21.166667,0 -21.166667,-31.749997 -42.333333,-31.749997 -21.166667,0 -21.166667,31.749997 -42.333334,31.749997"
         style="fill:none;stroke:#ff0000;stroke-width:0.79375;stroke-linecap:butt;stroke-linejoin:miter;stroke-miterlimit:4;stroke-dasharray:none;stroke-opacity:1" />
    </g>
    <path
       style="fill:none;stroke:#0000ff;stroke-width:0.79375;stroke-linecap:butt;stroke-linejoin:miter;stroke-miterlimit:4;stroke-dasharray:none;stroke-opacity:1"
       d="M -84.666667,31.75 C -105.83334,31.75 -105.83334,0 -127,0 c -21.16667,0 -21.16667,31.75 -42.33334,31.75"
       id="path2444"
       sodipodi:nodetypes="ccc" />
  </g>
</svg>
