<?xml version="1.0" encoding="UTF-8" standalone="no"?>
<svg
   xmlns:dc="http://purl.org/dc/elements/1.1/"
   xmlns:cc="http://creativecommons.org/ns#"
   xmlns:rdf="http://www.w3.org/1999/02/22-rdf-syntax-ns#"
   xmlns:svg="http://www.w3.org/2000/svg"
   xmlns="http://www.w3.org/2000/svg"
   xmlns:sodipodi="http://sodipodi.sourceforge.net/DTD/sodipodi-0.dtd"
   xmlns:inkscape="http://www.inkscape.org/namespaces/inkscape"
   sodipodi:docname="front_surface_matching_path_mod_2.svg"
   inkscape:version="1.0 (4035a4f, 2020-05-01)"
   id="svg8"
   version="1.1"
   viewBox="0 0 210 297"
   height="297mm"
   width="210mm">
  <defs
     id="defs2" />
  <sodipodi:namedview
     inkscape:window-maximized="0"
     inkscape:window-y="25"
     inkscape:window-x="0"
     inkscape:window-height="773"
     inkscape:window-width="1337"
     showgrid="true"
     inkscape:document-rotation="0"
     inkscape:current-layer="layer1"
     inkscape:document-units="mm"
     inkscape:cy="539.9126"
     inkscape:cx="388.7414"
     inkscape:zoom="0.391796"
     inkscape:pageshadow="2"
     inkscape:pageopacity="0.0"
     borderopacity="1.0"
     bordercolor="#666666"
     pagecolor="#ffffff"
     id="base">
    <inkscape:grid
       id="grid833"
       type="xygrid" />
  </sodipodi:namedview>
  <metadata
     id="metadata5">
    <rdf:RDF>
      <cc:Work
         rdf:about="">
        <dc:format>image/svg+xml</dc:format>
        <dc:type
           rdf:resource="http://purl.org/dc/dcmitype/StillImage" />
        <dc:title />
      </cc:Work>
    </rdf:RDF>
  </metadata>
  <g
     id="layer1"
     inkscape:groupmode="layer"
     inkscape:label="Layer 1">
    <path
       style="fill:none;stroke:#009600;stroke-width:0.79375;stroke-linecap:butt;stroke-linejoin:miter;stroke-miterlimit:4;stroke-dasharray:none;stroke-opacity:1"
       d="M 31.75,95.25 C 10.583333,95.25 10.583333,63.5 -10.583333,63.5 -31.75,63.5 -31.75,95.25 -52.916667,95.25"
       id="path863"
       sodipodi:nodetypes="ccc" />
    <path
       sodipodi:nodetypes="ccc"
       id="path865"
       d="M 31.75,95.25 C 10.583333,95.25 10.583333,127 -10.583333,127 -31.75,127 -31.75,95.25 -52.916667,95.25"
       style="fill:none;stroke:#009600;stroke-width:0.79375;stroke-linecap:butt;stroke-linejoin:miter;stroke-miterlimit:4;stroke-dasharray:none;stroke-opacity:1" />
    <path
       sodipodi:nodetypes="ccccc"
       id="path871"
       d="m -52.916667,105.83333 c 26.458334,0 51.1670765,-93.702161 84.666667,-95.249997 -21.166667,0 -21.166667,-31.75 -42.333333,-31.75 -21.166667,0 -21.166667,31.75 -42.333334,31.75 21.166667,0 63.500001,95.249997 84.666667,95.249997"
       style="fill:none;stroke:#ff00ff;stroke-width:0.79375;stroke-linecap:butt;stroke-linejoin:miter;stroke-miterlimit:4;stroke-dasharray:none;stroke-opacity:1" />
    <path
       style="fill:none;stroke:#ff00ff;stroke-width:0.79375;stroke-linecap:butt;stroke-linejoin:miter;stroke-opacity:1;stroke-miterlimit:4;stroke-dasharray:none"
       d="m 31.75,105.83333 c -21.166667,0 -21.166667,31.75 -42.333333,31.75 -21.166667,0 -21.166667,-31.75 -42.333334,-31.75"
       id="path873"
       sodipodi:nodetypes="ccc" />
    <path
       sodipodi:nodetypes="cccc"
       id="path875"
       d="M 402.16667,63.499999 C 402.16667,0 402.16667,0 359.83334,0 h -84.66667 c -42.33334,0 -42.33334,0 -42.33333,63.499999"
       style="fill:none;stroke:#000000;stroke-width:0.264583px;stroke-linecap:butt;stroke-linejoin:miter;stroke-opacity:1" />
    <path
       style="fill:none;stroke:#000000;stroke-width:0.264583px;stroke-linecap:butt;stroke-linejoin:miter;stroke-opacity:1"
       d="m 402.16666,63.5 c 0,63.5 0,63.5 -42.33333,63.5 h -84.66667 c -42.33334,0 -42.33334,0 -42.33333,-63.5"
       id="path877"
       sodipodi:nodetypes="cccc" />
    <path
       d="m -360.08634,65.116679 a 5.2916665,5.2916665 0 0 1 -6.62442,3.431797 5.2916665,5.2916665 0 0 1 -3.47234,-6.603252 5.2916665,5.2916665 0 0 1 6.58184,-3.512764 5.2916665,5.2916665 0 0 1 3.55305,6.560179 L -365.125,63.5 Z"
       style="fill:#000000;fill-opacity:1;stroke-width:0.79375"
       id="path881"
       sodipodi:type="arc"
       sodipodi:cx="-365.125"
       sodipodi:cy="63.5"
       sodipodi:rx="5.2916665"
       sodipodi:ry="5.2916665"
       sodipodi:start="0.31047837"
       sodipodi:end="0.28595474"
       sodipodi:arc-type="slice"
       transform="scale(-1,1)" />
    <path
       d="m -264.83634,65.116679 a 5.2916665,5.2916665 0 0 1 -6.62442,3.431797 5.2916665,5.2916665 0 0 1 -3.47234,-6.603252 5.2916665,5.2916665 0 0 1 6.58184,-3.512764 5.2916665,5.2916665 0 0 1 3.55305,6.560179 L -269.875,63.5 Z"
       sodipodi:arc-type="slice"
       sodipodi:end="0.28595474"
       sodipodi:start="0.31047837"
       sodipodi:ry="5.2916665"
       sodipodi:rx="5.2916665"
       sodipodi:cy="63.5"
       sodipodi:cx="-269.875"
       sodipodi:type="arc"
       id="path883"
       style="fill:#000000;fill-opacity:1;stroke-width:0.79375"
       transform="scale(-1,1)" />
    <path
       d="m -312.46134,65.116679 a 5.2916665,5.2916665 0 0 1 -6.62442,3.431797 5.2916665,5.2916665 0 0 1 -3.47234,-6.603252 5.2916665,5.2916665 0 0 1 6.58184,-3.512764 5.2916665,5.2916665 0 0 1 3.55305,6.560179 L -317.5,63.5 Z"
       sodipodi:arc-type="slice"
       sodipodi:end="0.28595474"
       sodipodi:start="0.31047837"
       sodipodi:ry="5.2916665"
       sodipodi:rx="5.2916665"
       sodipodi:cy="63.5"
       sodipodi:cx="-317.5"
       sodipodi:type="arc"
       id="path885"
       style="fill:#000000;fill-opacity:1;stroke-width:0.79375"
       transform="scale(-1,1)" />
    <path
       id="path887"
       d="m 269.875,68.791667 c 0,21.166666 26.45833,26.458333 47.625,26.458333 15.875,0 47.625,-5.291667 47.625,-26.458333"
       style="fill:none;stroke:#ff00ff;stroke-width:0.79375;stroke-linecap:butt;stroke-linejoin:miter;stroke-miterlimit:4;stroke-dasharray:none;stroke-opacity:1"
       sodipodi:nodetypes="ccc" />
    <path
       id="path889"
       d="m 322.79167,63.499999 h 37.04167"
       style="fill:none;stroke:#009600;stroke-width:0.794;stroke-linecap:butt;stroke-linejoin:miter;stroke-miterlimit:4;stroke-dasharray:none;stroke-opacity:1" />
    <path
       id="path3944"
       d="M 201.08333,0 H 63.499999 V 127 H 201.08333 Z"
       style="fill:none;stroke:#000000;stroke-width:0.264583px;stroke-linecap:butt;stroke-linejoin:miter;stroke-opacity:1" />
    <path
       id="path3946"
       d="M 127,0 V 127"
       style="fill:none;stroke:#009600;stroke-width:0.79375;stroke-linecap:butt;stroke-linejoin:miter;stroke-opacity:1;stroke-miterlimit:4;stroke-dasharray:none" />
    <path
       sodipodi:nodetypes="cc"
       id="path3948"
       d="M 63.499999,63.499999 C 105.83333,63.5 116.41667,84.666667 116.41667,127"
       style="fill:none;stroke:#ff00ff;stroke-width:0.79375;stroke-linecap:butt;stroke-linejoin:miter;stroke-miterlimit:4;stroke-dasharray:none;stroke-opacity:1" />
    <path
       sodipodi:nodetypes="cc"
       id="path3950"
       d="m 116.41667,0 c 0,42.333333 42.33333,63.5 84.66666,63.499999"
       style="fill:none;stroke:#ff00ff;stroke-width:0.79375;stroke-linecap:butt;stroke-linejoin:miter;stroke-miterlimit:4;stroke-dasharray:none;stroke-opacity:1" />
  </g>
</svg>
